<svg xmlns="http://www.w3.org/2000/svg" viewBox="0 0 100 100" preserveAspectRatio="xMidYMid" width="198" height="198" style="shape-rendering: auto; display: block; background: transparent;" xmlns:xlink="http://www.w3.org/1999/xlink"><g><g transform="rotate(0 50 50)">
  <rect fill="#ff9900" height="22" width="6" ry="10.78" rx="3" y="21" x="47">
    <animate repeatCount="indefinite" begin="-0.2088720907101651s" dur="0.2188183807439825s" keyTimes="0;1" values="1;0" attributeName="opacity"></animate>
  </rect>
</g><g transform="rotate(16.363636363636363 50 50)">
  <rect fill="#146eb4" height="22" width="6" ry="10.78" rx="3" y="21" x="47">
    <animate repeatCount="indefinite" begin="-0.1989258006763477s" dur="0.2188183807439825s" keyTimes="0;1" values="1;0" attributeName="opacity"></animate>
  </rect>
</g><g transform="rotate(32.72727272727273 50 50)">
  <rect fill="#ff9900" height="22" width="6" ry="10.78" rx="3" y="21" x="47">
    <animate repeatCount="indefinite" begin="-0.18897951064253032s" dur="0.2188183807439825s" keyTimes="0;1" values="1;0" attributeName="opacity"></animate>
  </rect>
</g><g transform="rotate(49.09090909090909 50 50)">
  <rect fill="#146eb4" height="22" width="6" ry="10.78" rx="3" y="21" x="47">
    <animate repeatCount="indefinite" begin="-0.17903322060871293s" dur="0.2188183807439825s" keyTimes="0;1" values="1;0" attributeName="opacity"></animate>
  </rect>
</g><g transform="rotate(65.45454545454545 50 50)">
  <rect fill="#ff9900" height="22" width="6" ry="10.78" rx="3" y="21" x="47">
    <animate repeatCount="indefinite" begin="-0.16908693057489554s" dur="0.2188183807439825s" keyTimes="0;1" values="1;0" attributeName="opacity"></animate>
  </rect>
</g><g transform="rotate(81.81818181818181 50 50)">
  <rect fill="#146eb4" height="22" width="6" ry="10.78" rx="3" y="21" x="47">
    <animate repeatCount="indefinite" begin="-0.15914064054107815s" dur="0.2188183807439825s" keyTimes="0;1" values="1;0" attributeName="opacity"></animate>
  </rect>
</g><g transform="rotate(98.18181818181819 50 50)">
  <rect fill="#ff9900" height="22" width="6" ry="10.78" rx="3" y="21" x="47">
    <animate repeatCount="indefinite" begin="-0.1491943505072608s" dur="0.2188183807439825s" keyTimes="0;1" values="1;0" attributeName="opacity"></animate>
  </rect>
</g><g transform="rotate(114.54545454545455 50 50)">
  <rect fill="#146eb4" height="22" width="6" ry="10.78" rx="3" y="21" x="47">
    <animate repeatCount="indefinite" begin="-0.1392480604734434s" dur="0.2188183807439825s" keyTimes="0;1" values="1;0" attributeName="opacity"></animate>
  </rect>
</g><g transform="rotate(130.9090909090909 50 50)">
  <rect fill="#ff9900" height="22" width="6" ry="10.78" rx="3" y="21" x="47">
    <animate repeatCount="indefinite" begin="-0.129301770439626s" dur="0.2188183807439825s" keyTimes="0;1" values="1;0" attributeName="opacity"></animate>
  </rect>
</g><g transform="rotate(147.27272727272728 50 50)">
  <rect fill="#146eb4" height="22" width="6" ry="10.78" rx="3" y="21" x="47">
    <animate repeatCount="indefinite" begin="-0.11935548040580862s" dur="0.2188183807439825s" keyTimes="0;1" values="1;0" attributeName="opacity"></animate>
  </rect>
</g><g transform="rotate(163.63636363636363 50 50)">
  <rect fill="#ff9900" height="22" width="6" ry="10.78" rx="3" y="21" x="47">
    <animate repeatCount="indefinite" begin="-0.10940919037199125s" dur="0.2188183807439825s" keyTimes="0;1" values="1;0" attributeName="opacity"></animate>
  </rect>
</g><g transform="rotate(180 50 50)">
  <rect fill="#146eb4" height="22" width="6" ry="10.78" rx="3" y="21" x="47">
    <animate repeatCount="indefinite" begin="-0.09946290033817386s" dur="0.2188183807439825s" keyTimes="0;1" values="1;0" attributeName="opacity"></animate>
  </rect>
</g><g transform="rotate(196.36363636363637 50 50)">
  <rect fill="#ff9900" height="22" width="6" ry="10.78" rx="3" y="21" x="47">
    <animate repeatCount="indefinite" begin="-0.08951661030435647s" dur="0.2188183807439825s" keyTimes="0;1" values="1;0" attributeName="opacity"></animate>
  </rect>
</g><g transform="rotate(212.72727272727272 50 50)">
  <rect fill="#146eb4" height="22" width="6" ry="10.78" rx="3" y="21" x="47">
    <animate repeatCount="indefinite" begin="-0.07957032027053908s" dur="0.2188183807439825s" keyTimes="0;1" values="1;0" attributeName="opacity"></animate>
  </rect>
</g><g transform="rotate(229.0909090909091 50 50)">
  <rect fill="#ff9900" height="22" width="6" ry="10.78" rx="3" y="21" x="47">
    <animate repeatCount="indefinite" begin="-0.0696240302367217s" dur="0.2188183807439825s" keyTimes="0;1" values="1;0" attributeName="opacity"></animate>
  </rect>
</g><g transform="rotate(245.45454545454547 50 50)">
  <rect fill="#146eb4" height="22" width="6" ry="10.78" rx="3" y="21" x="47">
    <animate repeatCount="indefinite" begin="-0.05967774020290431s" dur="0.2188183807439825s" keyTimes="0;1" values="1;0" attributeName="opacity"></animate>
  </rect>
</g><g transform="rotate(261.8181818181818 50 50)">
  <rect fill="#ff9900" height="22" width="6" ry="10.78" rx="3" y="21" x="47">
    <animate repeatCount="indefinite" begin="-0.04973145016908693s" dur="0.2188183807439825s" keyTimes="0;1" values="1;0" attributeName="opacity"></animate>
  </rect>
</g><g transform="rotate(278.1818181818182 50 50)">
  <rect fill="#146eb4" height="22" width="6" ry="10.78" rx="3" y="21" x="47">
    <animate repeatCount="indefinite" begin="-0.03978516013526954s" dur="0.2188183807439825s" keyTimes="0;1" values="1;0" attributeName="opacity"></animate>
  </rect>
</g><g transform="rotate(294.54545454545456 50 50)">
  <rect fill="#ff9900" height="22" width="6" ry="10.78" rx="3" y="21" x="47">
    <animate repeatCount="indefinite" begin="-0.029838870101452156s" dur="0.2188183807439825s" keyTimes="0;1" values="1;0" attributeName="opacity"></animate>
  </rect>
</g><g transform="rotate(310.90909090909093 50 50)">
  <rect fill="#146eb4" height="22" width="6" ry="10.78" rx="3" y="21" x="47">
    <animate repeatCount="indefinite" begin="-0.01989258006763477s" dur="0.2188183807439825s" keyTimes="0;1" values="1;0" attributeName="opacity"></animate>
  </rect>
</g><g transform="rotate(327.27272727272725 50 50)">
  <rect fill="#ff9900" height="22" width="6" ry="10.78" rx="3" y="21" x="47">
    <animate repeatCount="indefinite" begin="-0.009946290033817385s" dur="0.2188183807439825s" keyTimes="0;1" values="1;0" attributeName="opacity"></animate>
  </rect>
</g><g transform="rotate(343.6363636363636 50 50)">
  <rect fill="#146eb4" height="22" width="6" ry="10.78" rx="3" y="21" x="47">
    <animate repeatCount="indefinite" begin="0s" dur="0.2188183807439825s" keyTimes="0;1" values="1;0" attributeName="opacity"></animate>
  </rect>
</g><g></g></g><!-- [ldio] generated by https://loading.io --></svg>